<?xml version="1.0" encoding="UTF-8" standalone="no"?>
<svg
   xmlns:dc="http://purl.org/dc/elements/1.1/"
   xmlns:cc="http://creativecommons.org/ns#"
   xmlns:rdf="http://www.w3.org/1999/02/22-rdf-syntax-ns#"
   xmlns:svg="http://www.w3.org/2000/svg"
   xmlns="http://www.w3.org/2000/svg"
   xml:space="preserve"
   style="enable-background:new 0 0 512 512;"
   viewBox="0 0 512 512"
   y="0px"
   x="0px"
   id="Layer_1"
   version="1.1"><metadata
     id="metadata211"><rdf:RDF><cc:Work
         rdf:about=""><dc:format>image/svg+xml</dc:format><dc:type
           rdf:resource="http://purl.org/dc/dcmitype/StillImage" /><dc:title></dc:title></cc:Work></rdf:RDF></metadata><defs
     id="defs209" /><g
     id="g177"><g
       id="g179"><g
         id="g181"><path
           id="path183"
           d="M467.2,117.2l-240.7,0c-1.6,0-3-0.6-4.1-1.7L182,75.1c-1.1-1.1-2.6-1.7-4.1-1.7H44.8     c-3.2,0-5.8,2.6-5.8,5.8v354.5h434.1l0-310.7C473,119.9,470.4,117.2,467.2,117.2z"
           style="fill:#78A5D8;" /><path
           id="path185"
           d="M221.3,124.4l-40.4,40.4c-1,1.1-2.4,1.7-3.9,1.7H44.4c-3,0-5.5,2.7-5.5,6v260.1     c0,3.3,2.5,6,5.5,6h423.1c3,0,5.5-2.7,5.5-6v-304c0-3.3-2.5-6-5.5-6H225.2C223.8,122.6,222.4,123.2,221.3,124.4z"
           style="opacity:0.1" /><path
           id="path187"
           d="M220,130.6l-39.5,39.6c-1.1,1.1-2.6,1.7-4.1,1.7H31.8c-3.2,0-5.8,2.6-5.8,5.8v254.9     c0,3.2,2.6,5.8,5.8,5.8h448.3c3.2,0,5.8-2.6,5.8-5.8V134.8c0-3.2-2.6-5.8-5.8-5.8h-256C222.6,128.9,221.1,129.6,220,130.6z"
           style="fill:#D5E5F5;" /></g><g
         id="g189"><polygon
           id="polygon191"
           points="208.2,287.2 208.2,353.4 232,353.4 232,309.8 232,305.9 267.7,305.9 267.7,309.8      267.7,353.4 303.3,353.4 303.3,287.2 255.8,253.4    "
           style="fill:none;" /><rect
           id="rect193"
           height="3.9"
           width="35.7"
           style="fill:#5A83C3;"
           y="305.9"
           x="232" /><rect
           id="rect195"
           height="3.9"
           width="23.8"
           style="fill:#5A83C3;"
           y="353.4"
           x="208.2" /><path
           id="path197"
           d="M165.5,288.3l83.2-59.4c1.7-1.3,3.8-2,5.9-2.2c2.9-0.3,5.8,0.5,8.2,2.2l83.2,59.4     c2.9,2.1,4.6,5.4,4.8,8.7v-1.8c0.4-4.1-1.3-8.3-4.8-10.9l-83.2-59.4c-2.4-1.7-5.3-2.5-8.2-2.2c-2.1,0.2-4.2,1-5.9,2.2l-83.2,59.4     c-3.6,2.6-5.3,6.8-4.8,11v1.6C161,293.6,162.6,290.4,165.5,288.3z"
           style="fill:#5A83C3;" /><rect
           id="rect199"
           height="3.9"
           width="35.7"
           style="fill:#5A83C3;"
           y="353.4"
           x="267.7" /><path
           id="path201"
           d="M350.9,299.1c0.1-0.7,0.1-1.4,0-2.1V299.1z"
           style="fill:#78A5D8;" /><path
           id="path203"
           d="M160.7,299.2v-2.3C160.6,297.7,160.6,298.5,160.7,299.2z"
           style="fill:#78A5D8;" /><path
           id="path205"
           d="M346,288.3l-83.2-59.4c-2.4-1.7-5.3-2.5-8.2-2.2c-2.1,0.2-4.2,1-5.9,2.2l-83.2,59.4     c-2.9,2.1-4.5,5.3-4.8,8.6v2.3v6.6h10.7c2.8,0.3,5.8-0.4,8.3-2.2l4.8-3.4v3.9v61.2c0,6.6,5.3,11.9,11.9,11.9h118.9     c6.6,0,11.9-5.3,11.9-11.9v-61.2v-3.9l4.8,3.4c2.5,1.8,5.4,2.5,8.3,2.2h10.7v-6.7V297C350.6,293.6,349,290.4,346,288.3z      M303.3,287.2v66.2v3.9h-35.7v-3.9v-43.6H232v43.6v3.9h-23.8v-3.9v-66.2v-3.9l47.5-33.9l47.5,33.9V287.2z"
           style="fill:#78A5D8;" /></g></g></g></svg>