<?xml version="1.0" encoding="UTF-8" standalone="no"?>
<svg
   xmlns:dc="http://purl.org/dc/elements/1.1/"
   xmlns:cc="http://creativecommons.org/ns#"
   xmlns:rdf="http://www.w3.org/1999/02/22-rdf-syntax-ns#"
   xmlns:svg="http://www.w3.org/2000/svg"
   xmlns="http://www.w3.org/2000/svg"
   xml:space="preserve"
   style="enable-background:new 0 0 512 512;"
   viewBox="0 0 512 512"
   y="0px"
   x="0px"
   id="Layer_1"
   version="1.1"><metadata
     id="metadata308"><rdf:RDF><cc:Work
         rdf:about=""><dc:format>image/svg+xml</dc:format><dc:type
           rdf:resource="http://purl.org/dc/dcmitype/StillImage" /><dc:title></dc:title></cc:Work></rdf:RDF></metadata><defs
     id="defs306" /><g
     id="g288"><g
       id="g290"><g
         id="g292"><path
           id="path294"
           d="M467.2,117.2l-240.7,0c-1.6,0-3-0.6-4.1-1.7L182,75.1c-1.1-1.1-2.6-1.7-4.1-1.7H44.8     c-3.2,0-5.8,2.6-5.8,5.8v354.5h434.1l0-310.7C473,119.9,470.4,117.2,467.2,117.2z"
           style="fill:#78A5D8;" /><path
           id="path296"
           d="M221.3,124.4l-40.4,40.4c-1,1.1-2.4,1.7-3.9,1.7H44.4c-3,0-5.5,2.7-5.5,6v260.1     c0,3.3,2.5,6,5.5,6h423.1c3,0,5.5-2.7,5.5-6v-304c0-3.3-2.5-6-5.5-6H225.2C223.8,122.6,222.4,123.2,221.3,124.4z"
           style="opacity:0.1" /><path
           id="path298"
           d="M220,130.6l-39.5,39.6c-1.1,1.1-2.6,1.7-4.1,1.7H31.8c-3.2,0-5.8,2.6-5.8,5.8v254.9     c0,3.2,2.6,5.8,5.8,5.8h448.3c3.2,0,5.8-2.6,5.8-5.8V134.8c0-3.2-2.6-5.8-5.8-5.8h-256C222.6,128.9,221.1,129.6,220,130.6z"
           style="fill:#D5E5F5;" /></g></g><path
       id="path300"
       d="M330,358.4l-40.5-40.5c6.8-9.8,10.7-21.6,10.7-34.3c0-33.4-27.4-60.7-60.8-60.7   c-33.4,0-60.8,27.4-60.8,60.7c0,33.4,27.4,60.7,60.8,60.7c12.7,0,24.6-4,34.4-10.7l40.7,40.7c4.4,4.3,11.4,4.2,15.7-0.2   C334.5,369.7,334.4,362.7,330,358.4z M239.4,322.2c-21.5,0-38.6-17.1-38.6-38.6c0-21.5,17.1-38.6,38.6-38.6s38.6,17.1,38.6,38.6   C278,305.1,260.9,322.2,239.4,322.2z"
       style="fill:#5A83C3;" /><path
       id="path302"
       d="M239.4,225.8c-32.9,0-60,26.5-60.8,59.3c0.8,32.7,27.8,59.3,60.8,59.3c12.7,0,24.6-4,34.4-10.7   l40.7,40.7c4.4,4.3,11.4,4.2,15.7-0.2c1.7-1.8,2.7-4,3.1-6.3c-0.3-2.4-1.4-4.6-3.2-6.4l-40.5-40.5c0.4-0.6,0.8-1.2,1.2-1.8   l-1.2-1.2c6.5-9.3,10.4-20.6,10.7-32.6C299.5,252.5,272.4,225.8,239.4,225.8z M278,286.6c0,21.5-17.1,38.6-38.6,38.6   s-38.6-17.1-38.6-38.6c0-0.5,0-1,0-1.5c0-0.5,0-1,0-1.5c0-21.5,17.1-38.6,38.6-38.6s38.6,17.1,38.6,38.6c0,0.5,0,1,0,1.5   C278,285.6,278,286.1,278,286.6z"
       style="fill:#78A5D8;" /></g></svg>