<?xml version="1.0" encoding="UTF-8" standalone="no"?>
<svg
   xmlns:dc="http://purl.org/dc/elements/1.1/"
   xmlns:cc="http://creativecommons.org/ns#"
   xmlns:rdf="http://www.w3.org/1999/02/22-rdf-syntax-ns#"
   xmlns:svg="http://www.w3.org/2000/svg"
   xmlns="http://www.w3.org/2000/svg"
   xml:space="preserve"
   style="enable-background:new 0 0 512 512;"
   viewBox="0 0 512 512"
   y="0px"
   x="0px"
   id="Layer_1"
   version="1.1"><metadata
     id="metadata337"><rdf:RDF><cc:Work
         rdf:about=""><dc:format>image/svg+xml</dc:format><dc:type
           rdf:resource="http://purl.org/dc/dcmitype/StillImage" /><dc:title></dc:title></cc:Work></rdf:RDF></metadata><defs
     id="defs335" /><g
     id="g311"><g
       id="g313"><g
         id="g315"><path
           id="path317"
           d="M467.2,117.2l-240.7,0c-1.6,0-3-0.6-4.1-1.7L182,75.1c-1.1-1.1-2.6-1.7-4.1-1.7H44.8     c-3.2,0-5.8,2.6-5.8,5.8v354.5h434.1l0-310.7C473,119.9,470.4,117.2,467.2,117.2z"
           style="fill:#78A5D8;" /><path
           id="path319"
           d="M221.3,124.4l-40.4,40.4c-1,1.1-2.4,1.7-3.9,1.7H44.4c-3,0-5.5,2.7-5.5,6v260.1     c0,3.3,2.5,6,5.5,6h423.1c3,0,5.5-2.7,5.5-6v-304c0-3.3-2.5-6-5.5-6H225.2C223.8,122.6,222.4,123.2,221.3,124.4z"
           style="opacity:0.1" /><path
           id="path321"
           d="M220,130.6l-39.5,39.6c-1.1,1.1-2.6,1.7-4.1,1.7H31.8c-3.2,0-5.8,2.6-5.8,5.8v254.9     c0,3.2,2.6,5.8,5.8,5.8h448.3c3.2,0,5.8-2.6,5.8-5.8V134.8c0-3.2-2.6-5.8-5.8-5.8h-256C222.6,128.9,221.1,129.6,220,130.6z"
           style="fill:#D5E5F5;" /></g></g><g
       id="g323"><g
         transform="translate(-561,-195)"
         id="layer13"><path
           d="M892.5,435.7H792c-7,0-12.6,5.6-12.6,12.6v88.3c0,7,5.6,12.6,12.6,12.6h100.6     c7,0,12.6-5.6,12.6-12.6v-88.3C905.1,441.4,899.5,435.7,892.5,435.7z"
           style="fill:#5A83C3;"
           id="rect5544" /><path
           d="M779.3,492.1     l-43.8-43.8h-6.7v88.3h6.3L779.3,492.1z"
           style="fill:#5A83C3;"
           id="path5546" /></g><g
         transform="translate(-561,-195)"
         id="layer13_2_"><path
           id="path329"
           d="M892.5,438.7H792c-7,0-12.6,5.6-12.6,12.6v85.4c0,7,5.6,12.6,12.6,12.6h100.6     c7,0,12.6-5.6,12.6-12.6v-85.4C905.1,444.3,899.5,438.7,892.5,438.7z"
           style="fill:#78A5D8;" /><polygon
           id="polygon331"
           points="777.9,493.6 735.6,451.3 728.9,451.3 728.9,536.7 735.2,536.7    "
           style="fill:#78A5D8;" /></g></g></g></svg>