<?xml version="1.0" encoding="UTF-8" standalone="no"?>
<svg
   xmlns:dc="http://purl.org/dc/elements/1.1/"
   xmlns:cc="http://creativecommons.org/ns#"
   xmlns:rdf="http://www.w3.org/1999/02/22-rdf-syntax-ns#"
   xmlns:svg="http://www.w3.org/2000/svg"
   xmlns="http://www.w3.org/2000/svg"
   xml:space="preserve"
   style="enable-background:new 0 0 512 512;"
   viewBox="0 0 512 512"
   y="0px"
   x="0px"
   id="Layer_1"
   version="1.1"><metadata
     id="metadata285"><rdf:RDF><cc:Work
         rdf:about=""><dc:format>image/svg+xml</dc:format><dc:type
           rdf:resource="http://purl.org/dc/dcmitype/StillImage" /><dc:title></dc:title></cc:Work></rdf:RDF></metadata><defs
     id="defs283" /><g
     id="g260"><g
       id="g262"><g
         id="g264"><path
           id="path266"
           d="M467.2,117.2l-240.7,0c-1.6,0-3-0.6-4.1-1.7L182,75.1c-1.1-1.1-2.6-1.7-4.1-1.7H44.8     c-3.2,0-5.8,2.6-5.8,5.8v354.5h434.1l0-310.7C473,119.9,470.4,117.2,467.2,117.2z"
           style="fill:#78A5D8;" /><path
           id="path268"
           d="M221.3,124.4l-40.4,40.4c-1,1.1-2.4,1.7-3.9,1.7H44.4c-3,0-5.5,2.7-5.5,6v260.1     c0,3.3,2.5,6,5.5,6h423.1c3,0,5.5-2.7,5.5-6v-304c0-3.3-2.5-6-5.5-6H225.2C223.8,122.6,222.4,123.2,221.3,124.4z"
           style="opacity:0.1" /><path
           id="path270"
           d="M220,130.6l-39.5,39.6c-1.1,1.1-2.6,1.7-4.1,1.7H31.8c-3.2,0-5.8,2.6-5.8,5.8v254.9     c0,3.2,2.6,5.8,5.8,5.8h448.3c3.2,0,5.8-2.6,5.8-5.8V134.8c0-3.2-2.6-5.8-5.8-5.8h-256C222.6,128.9,221.1,129.6,220,130.6z"
           style="fill:#D5E5F5;" /></g></g><g
       id="g272"><path
         d="M230.2,222.5c-7.1,0-12.9,5.8-12.9,12.9v12.9    h-38.6c-7.1,0-12.9,5.8-12.9,12.9v103c0,7.1,5.8,12.9,12.9,12.9h154.6c7.1,0,12.9-5.8,12.9-12.9v-103c0-7.1-5.8-12.9-12.9-12.9    h-38.6v-12.9c0-7.1-5.8-12.9-12.9-12.9H230.2z M256,261.1c28.5,0,51.5,23.1,51.5,51.5s-23.1,51.5-51.5,51.5s-51.5-23.1-51.5-51.5    S227.5,261.1,256,261.1z M256,286.9c-14.2,0-25.8,11.5-25.8,25.8s11.5,25.8,25.8,25.8c14.2,0,25.8-11.5,25.8-25.8    S270.2,286.9,256,286.9z"
         style="fill:#5A83C3;"
         id="path4975_1_" /><g
         id="g275"><path
           id="path277"
           d="M256,290.8c-13.6,0-24.7,10.5-25.7,23.8c1,13.3,12.1,23.8,25.7,23.8s24.7-10.5,25.7-23.8     C280.7,301.3,269.6,290.8,256,290.8z"
           style="fill:#78A5D8;" /><path
           id="path279"
           d="M333.3,252.2h-38.6v-3.9v-8.9c0-7.1-5.8-12.9-12.9-12.9h-51.5c-7.1,0-12.9,5.8-12.9,12.9v8.9v3.9     h-38.6c-7.1,0-12.9,5.8-12.9,12.9v99.1c0,7.1,5.8,12.9,12.9,12.9h154.6c7.1,0,12.9-5.8,12.9-12.9V265     C346.2,258,340.4,252.2,333.3,252.2z M307.5,316.6c0,28.5-23.1,51.5-51.5,51.5s-51.5-23.1-51.5-51.5c0-0.7,0-1.3,0-2     c0-0.7,0-1.3,0-2c0-28.5,23.1-51.5,51.5-51.5s51.5,23.1,51.5,51.5c0,0.7,0,1.3,0,2C307.5,315.2,307.5,315.9,307.5,316.6z"
           style="fill:#78A5D8;" /></g></g></g></svg>