<?xml version="1.0" encoding="UTF-8" standalone="no"?>
<svg
   xmlns:dc="http://purl.org/dc/elements/1.1/"
   xmlns:cc="http://creativecommons.org/ns#"
   xmlns:rdf="http://www.w3.org/1999/02/22-rdf-syntax-ns#"
   xmlns:svg="http://www.w3.org/2000/svg"
   xmlns="http://www.w3.org/2000/svg"
   xml:space="preserve"
   style="enable-background:new 0 0 512 512;"
   viewBox="0 0 512 512"
   y="0px"
   x="0px"
   id="Layer_1"
   version="1.1"><metadata
     id="metadata358"><rdf:RDF><cc:Work
         rdf:about=""><dc:format>image/svg+xml</dc:format><dc:type
           rdf:resource="http://purl.org/dc/dcmitype/StillImage" /><dc:title></dc:title></cc:Work></rdf:RDF></metadata><defs
     id="defs356" /><g
     id="g340"><g
       id="g342"><path
         id="path344"
         d="M467.2,117.2l-240.7,0c-1.6,0-3-0.6-4.1-1.7L182,75.1c-1.1-1.1-2.6-1.7-4.1-1.7H44.8    c-3.2,0-5.8,2.6-5.8,5.8v354.5h434.1l0-310.7C473,119.9,470.4,117.2,467.2,117.2z"
         style="fill:#78A5D8;" /><path
         id="path346"
         d="m 221.3,124.4 -40.4,40.4 c -1,1.1 -2.4,1.7 -3.9,1.7 l -132.6,0 c -3,0 -5.5,2.7 -5.5,6 l 0,260.1 c 0,3.3 2.5,6 5.5,6 l 423.1,0 c 3,0 5.5,-2.7 5.5,-6 l 0,-304 c 0,-3.3 -2.5,-6 -5.5,-6 -80.76667,0 -161.53333,0 -242.3,0 -1.4,0 -2.8,0.6 -3.9,1.8 z"
         style="opacity:0.1" /><path
         id="path348"
         d="M220,130.6l-39.5,39.6c-1.1,1.1-2.6,1.7-4.1,1.7H31.8c-3.2,0-5.8,2.6-5.8,5.8v254.9    c0,3.2,2.6,5.8,5.8,5.8h448.3c3.2,0,5.8-2.6,5.8-5.8V134.8c0-3.2-2.6-5.8-5.8-5.8h-256C222.6,128.9,221.1,129.6,220,130.6z"
         style="fill:#D5E5F5;" /></g><g
       transform="translate(-481,-195.00012)"
       id="layer13"><path
         d="M683.5,417.5c-4.9,0.9-8.5,5.3-8.4,10.3v133.9    c0,5.7,4.6,10.3,10.3,10.3h103c5.7,0,10.3-4.6,10.3-10.3v-97.2c0.1-2.8-1-5.4-2.9-7.4l-36.7-36.7c-2-1.9-4.6-3-7.4-2.9h-66.3    c-0.3,0-0.6,0-1,0C684.2,417.5,683.9,417.5,683.5,417.5L683.5,417.5z M695.8,438.1h51.5V469h30.9v82.4h-82.4V438.1z"
         style="fill:#5A83C3;"
         id="path5003_1_" /><path
         id="path352"
         d="M759.2,424.4c-2-1.9-4.6-3-7.4-2.9h-66.3c-0.3,0-0.6,0-1,0c-0.3,0-0.6,0-1,0h0    c-4.9,0.9-8.5,5.3-8.4,10.3v129.9c0,5.7,4.6,10.3,10.3,10.3h103c5.7,0,10.3-4.6,10.3-10.3v-93.2c0.1-2.8-1-5.4-2.9-7.4    L759.2,424.4z M778.2,473v78.4v4h-82.4v-4V442.1v-4h51.5v4V469h30.9V473z"
         style="fill:#78A5D8;" /></g></g></svg>