<?xml version="1.0" encoding="UTF-8" standalone="no"?>
<svg
   xmlns:dc="http://purl.org/dc/elements/1.1/"
   xmlns:cc="http://creativecommons.org/ns#"
   xmlns:rdf="http://www.w3.org/1999/02/22-rdf-syntax-ns#"
   xmlns:svg="http://www.w3.org/2000/svg"
   xmlns="http://www.w3.org/2000/svg"
   xml:space="preserve"
   style="enable-background:new 0 0 512 512;"
   viewBox="0 0 512 512"
   y="0px"
   x="0px"
   id="Layer_1"
   version="1.1"><metadata
     id="metadata232"><rdf:RDF><cc:Work
         rdf:about=""><dc:format>image/svg+xml</dc:format><dc:type
           rdf:resource="http://purl.org/dc/dcmitype/StillImage" /><dc:title></dc:title></cc:Work></rdf:RDF></metadata><defs
     id="defs230" /><g
     id="g214"><g
       id="g216"><path
         id="path218"
         d="M467.2,117.2l-240.7,0c-1.6,0-3-0.6-4.1-1.7L182,75.1c-1.1-1.1-2.6-1.7-4.1-1.7H44.8    c-3.2,0-5.8,2.6-5.8,5.8v354.5h434.1l0-310.7C473,119.9,470.4,117.2,467.2,117.2z"
         style="fill:#78A5D8;" /><path
         id="path220"
         d="M221.3,124.4l-40.4,40.4c-1,1.1-2.4,1.7-3.9,1.7H44.4c-3,0-5.5,2.7-5.5,6v260.1    c0,3.3,2.5,6,5.5,6h423.1c3,0,5.5-2.7,5.5-6v-304c0-3.3-2.5-6-5.5-6H225.2C223.8,122.6,222.4,123.2,221.3,124.4z"
         style="opacity:0.1" /><path
         id="path222"
         d="M220,130.6l-39.5,39.6c-1.1,1.1-2.6,1.7-4.1,1.7H31.8c-3.2,0-5.8,2.6-5.8,5.8v254.9    c0,3.2,2.6,5.8,5.8,5.8h448.3c3.2,0,5.8-2.6,5.8-5.8V134.8c0-3.2-2.6-5.8-5.8-5.8h-256C222.6,128.9,221.1,129.6,220,130.6z"
         style="fill:#D5E5F5;" /></g><path
       id="path224"
       d="M345.2,332.8v-86.5v-23.8h-23.8H250h-23.8v23.8V298c-5.4-2.5-11.5-4-17.8-4   c-22.9,0-41.7,18.4-41.7,41.3c0,22.9,18.8,41.7,41.7,41.7c22.9,0,41.7-18.8,41.7-41.7c0-0.9,0-1.7-0.1-2.5v-86.5h71.4V298   c-5.4-2.5-11.5-4-17.8-4c-22.9,0-41.7,18.4-41.7,41.3c0,22.9,18.8,41.7,41.7,41.7c22.9,0,41.7-18.8,41.7-41.7   C345.3,334.5,345.3,333.6,345.2,332.8z M208.4,353.3c-10,0-18-8-18-18c0-10,8-17.6,18-17.6c9.2,0,16.6,6.4,17.8,15.2v2.7h0.2   C226.2,345.5,218.3,353.3,208.4,353.3z M303.6,353.3c-10,0-18-8-18-18c0-10,8-17.6,18-17.6c9.2,0,16.6,6.4,17.8,15.2v3.3h0.1   C321.1,345.8,313.3,353.3,303.6,353.3z"
       style="fill:#5A83C3;" /><path
       id="path226"
       d="M208.4,298c-22.2,0-40.6,17.4-41.6,39.3c1,22,19.4,39.7,41.6,39.7c22.1,0,40.5-17.6,41.6-39.5   c0-0.3,0-0.5,0-0.8v-3.9v-82.6v-3.9h71.4v3.9V298v3.9c-5.4-2.5-11.5-4-17.8-4c-22.2,0-40.6,17.4-41.6,39.3   c1,22,19.4,39.7,41.6,39.7c22.1,0,40.5-17.6,41.6-39.5c0-0.3,0-0.5,0-0.8v-3.9v-82.6v-3.9v-19.9h-23.8H250h-23.8v19.9v3.9V298v3.9   C220.8,299.4,214.8,298,208.4,298z M321.5,336.3c0,0.4-0.1,0.9-0.1,1.3v2.6h0.1c-0.5,9.6-8.2,17.1-17.9,17.1c-10,0-18-8-18-18   c0-0.7,0-1.3,0.1-2c-0.1-0.6-0.1-1.3-0.1-2c0-10,8-17.6,18-17.6c9.2,0,16.6,6.4,17.8,15.2v3.3H321.5z M226.4,335.7   c0,0.7-0.1,1.3-0.2,2v1.9h0.2c-0.2,9.8-8.1,17.6-18,17.6c-10,0-18-8-18-18c0-0.7,0-1.3,0.1-2c-0.1-0.6-0.1-1.3-0.1-2   c0-10,8-17.6,18-17.6c9.2,0,16.6,6.4,17.8,15.2v2.7H226.4z"
       style="fill:#78A5D8;" /></g></svg>