<?xml version="1.0" encoding="UTF-8" standalone="no"?>
<svg
   xmlns:dc="http://purl.org/dc/elements/1.1/"
   xmlns:cc="http://creativecommons.org/ns#"
   xmlns:rdf="http://www.w3.org/1999/02/22-rdf-syntax-ns#"
   xmlns:svg="http://www.w3.org/2000/svg"
   xmlns="http://www.w3.org/2000/svg"
   xml:space="preserve"
   style="enable-background:new 0 0 512 512;"
   viewBox="0 0 512 512"
   y="0px"
   x="0px"
   id="Layer_1"
   version="1.1"><metadata
     id="metadata28"><rdf:RDF><cc:Work
         rdf:about=""><dc:format>image/svg+xml</dc:format><dc:type
           rdf:resource="http://purl.org/dc/dcmitype/StillImage" /><dc:title></dc:title></cc:Work></rdf:RDF></metadata><defs
     id="defs26" /><g
     id="g3"><g
       id="g5"><g
         id="g7"><path
           id="path9"
           d="M467.2,117.2l-240.7,0c-1.6,0-3-0.6-4.1-1.7L182,75.1c-1.1-1.1-2.6-1.7-4.1-1.7H44.8     c-3.2,0-5.8,2.6-5.8,5.8v354.5h434.1l0-310.7C473,119.9,470.4,117.2,467.2,117.2z"
           style="fill:#78A5D8;" /><path
           id="path11"
           d="M221.3,124.4l-40.4,40.4c-1,1.1-2.4,1.7-3.9,1.7H44.4c-3,0-5.5,2.7-5.5,6v260.1     c0,3.3,2.5,6,5.5,6h423.1c3,0,5.5-2.7,5.5-6v-304c0-3.3-2.5-6-5.5-6H225.2C223.8,122.6,222.4,123.2,221.3,124.4z"
           style="opacity:0.1" /><path
           id="path13"
           d="M220,130.6l-39.5,39.6c-1.1,1.1-2.6,1.7-4.1,1.7H31.8c-3.2,0-5.8,2.6-5.8,5.8v254.9     c0,3.2,2.6,5.8,5.8,5.8h448.3c3.2,0,5.8-2.6,5.8-5.8V134.8c0-3.2-2.6-5.8-5.8-5.8h-256C222.6,128.9,221.1,129.6,220,130.6z"
           style="fill:#D5E5F5;" /></g></g><g
       id="g15"><path
         d="    M305.4,376.1c-9.3,6.7-38.2-22.6-49.7-22.7c-11.5,0-40.7,29.1-49.9,22.3c-9.3-6.8,9.7-43.3,6.2-54.3c-3.5-11-40.2-29.7-36.6-40.6    c3.6-10.9,44.2-4.2,53.6-10.9c9.3-6.7,15.8-47.4,27.3-47.4c11.5,0,17.6,40.8,26.9,47.6c9.3,6.8,50,0.4,53.5,11.3    c3.5,11-33.3,29.4-36.9,40.3C296.1,332.6,314.8,369.3,305.4,376.1L305.4,376.1z"
         style="fill:#5A83C3;"
         id="path11922" /><path
         id="path18"
         d="M336.7,284.5c0,0,0-0.1,0-0.1c-3.5-11-44.2-4.5-53.5-11.3c-9.3-6.8-15.4-47.5-26.9-47.6    c-11.5,0-18,40.6-27.3,47.4c-9.3,6.7-50-0.1-53.6,10.9c0,0.1,0,0.1,0,0.2c2.8,11.1,33.5,27.5,36.7,37.5c0.4,1.3,0.5,3,0.4,5    c0.9,9.7-8.3,30.9-9.1,43.5c0.2,2.6,0.9,4.7,2.5,5.8c9.3,6.8,38.4-22.3,49.9-22.3c11.5,0,40.4,29.4,49.7,22.7l0,0    c1.6-1.2,2.4-3.3,2.6-6c-0.7-12.5-9.6-33.5-8.7-43.2c-0.1-2,0-3.8,0.4-5.1C303,311.7,333.9,295.6,336.7,284.5z"
         style="fill:#78A5D8;" /><g
         id="g20"><path
           d="     M289.7,357.1c-6.4,4.6-26-15.4-33.9-15.4c-7.8,0-27.7,19.8-34,15.2c-6.3-4.6,6.6-29.5,4.2-37c-2.4-7.5-27.4-20.2-24.9-27.6     c2.4-7.4,30.1-2.8,36.5-7.4c6.4-4.6,10.8-32.3,18.6-32.3c7.8,0,12,27.8,18.3,32.4c6.3,4.6,34,0.3,36.4,7.7     c2.4,7.5-22.7,20-25.2,27.4C283.3,327.5,296,352.5,289.7,357.1L289.7,357.1z"
           style="fill:#5A83C3;"
           id="path11922_1_" /><path
           d="     M289.7,353.2c-6.4,4.6-26-15.4-33.9-15.4c-7.8,0-27.7,19.8-34,15.2c-6.3-4.6,6.6-29.5,4.2-37c-2.4-7.5-27.4-20.2-24.9-27.6     c2.4-7.4,30.1-2.8,36.5-7.4c6.4-4.6,10.8-32.3,18.6-32.3c7.8,0,12,27.8,18.3,32.4c6.3,4.6,34,0.3,36.4,7.7     c2.4,7.5-22.7,20-25.2,27.4C283.3,323.6,296,348.6,289.7,353.2L289.7,353.2z"
           style="fill:#D5E5F5;"
           id="path11922_2_" /></g></g></g></svg>