<?xml version="1.0" encoding="UTF-8" standalone="no"?>
<svg
   xmlns:dc="http://purl.org/dc/elements/1.1/"
   xmlns:cc="http://creativecommons.org/ns#"
   xmlns:rdf="http://www.w3.org/1999/02/22-rdf-syntax-ns#"
   xmlns:svg="http://www.w3.org/2000/svg"
   xmlns="http://www.w3.org/2000/svg"
   version="1.1"
   id="Layer_1"
   x="0px"
   y="0px"
   viewBox="0 0 512 512"
   style="enable-background:new 0 0 512 512;"
   xml:space="preserve"><metadata
     id="metadata39"><rdf:RDF><cc:Work
         rdf:about=""><dc:format>image/svg+xml</dc:format><dc:type
           rdf:resource="http://purl.org/dc/dcmitype/StillImage" /><dc:title></dc:title></cc:Work></rdf:RDF></metadata><defs
     id="defs37" /><g
     id="g3"><g
       id="g5"><linearGradient
         id="SVGID_1_"
         gradientUnits="userSpaceOnUse"
         x1="256.0004"
         y1="433.7987"
         x2="256.0004"
         y2="73.4346"><stop
           offset="0"
           style="stop-color:#7D4F43"
           id="stop8" /><stop
           offset="0.1856"
           style="stop-color:#86594C"
           id="stop10" /><stop
           offset="0.5144"
           style="stop-color:#9F7765"
           id="stop12" /><stop
           offset="0.9454"
           style="stop-color:#CCB097"
           id="stop14" /><stop
           offset="1"
           style="stop-color:#D3B99F"
           id="stop16" /></linearGradient><path
         style="fill:url(#SVGID_1_);"
         d="M467.2,117.2l-240.7,0c-1.6,0-3-0.6-4.1-1.7L182,75.1c-1.1-1.1-2.6-1.7-4.1-1.7H44.8    c-3.2,0-5.8,2.6-5.8,5.8v354.5h434.1l0-310.7C473,119.9,470.4,117.2,467.2,117.2z"
         id="path18" /><path
         style="opacity:0.1"
         d="M221.3,124.4l-40.4,40.4c-1,1.1-2.4,1.7-3.9,1.7H44.4c-3,0-5.5,2.7-5.5,6v260.1    c0,3.3,2.5,6,5.5,6h423.1c3,0,5.5-2.7,5.5-6v-304c0-3.3-2.5-6-5.5-6H225.2C223.8,122.6,222.4,123.2,221.3,124.4z"
         id="path20" /><linearGradient
         id="SVGID_2_"
         gradientUnits="userSpaceOnUse"
         x1="256"
         y1="438.5654"
         x2="256"
         y2="128.9345"><stop
           offset="0"
           style="stop-color:#F6DABE"
           id="stop23" /><stop
           offset="0.9239"
           style="stop-color:#E3C5A4"
           id="stop25" /><stop
           offset="1"
           style="stop-color:#E2C3A2"
           id="stop27" /></linearGradient><path
         style="fill:url(#SVGID_2_);"
         d="M220,130.6l-39.5,39.6c-1.1,1.1-2.6,1.7-4.1,1.7H31.8c-3.2,0-5.8,2.6-5.8,5.8v254.9    c0,3.2,2.6,5.8,5.8,5.8h448.3c3.2,0,5.8-2.6,5.8-5.8V134.8c0-3.2-2.6-5.8-5.8-5.8h-256C222.6,128.9,221.1,129.6,220,130.6z"
         id="path29" /></g><g
       id="layer13"
       transform="translate(-481,-195.00012)"><path
         id="path5003_1_"
         style="fill:#846B55;"
         d="M683.5,417.5c-4.9,0.9-8.5,5.3-8.4,10.3v134    c0,5.7,4.6,10.3,10.3,10.3h103c5.7,0,10.3-4.6,10.3-10.3v-97.2c0.1-2.8-1-5.4-2.9-7.4l-36.7-36.7c-2-1.9-4.6-3-7.4-2.9h-66.3    c-0.3,0-0.6,0-1,0C684.2,417.5,683.9,417.5,683.5,417.5L683.5,417.5z M695.8,438.1h51.5V469h30.9v82.4h-82.4V438.1z" /><path
         style="fill:#C5A994;"
         d="M759.2,424.4c-2-1.9-4.6-3-7.4-2.9h-66.3c-0.3,0-0.6,0-1,0c-0.3,0-0.6,0-1,0h0    c-4.9,0.9-8.5,5.3-8.4,10.3v129.9c0,5.7,4.6,10.3,10.3,10.3h103c5.7,0,10.3-4.6,10.3-10.3v-93.2c0.1-2.8-1-5.4-2.9-7.4    L759.2,424.4z M778.2,473v78.4v4h-82.4v-4V442.1v-4h51.5v4V469h30.9V473z"
         id="path33" /></g></g></svg>