<?xml version="1.0" encoding="UTF-8" standalone="no"?>
<svg
   xmlns:dc="http://purl.org/dc/elements/1.1/"
   xmlns:cc="http://creativecommons.org/ns#"
   xmlns:rdf="http://www.w3.org/1999/02/22-rdf-syntax-ns#"
   xmlns:svg="http://www.w3.org/2000/svg"
   xmlns="http://www.w3.org/2000/svg"
   xml:space="preserve"
   style="enable-background:new 0 0 512 512;"
   viewBox="0 0 512 512"
   y="0px"
   x="0px"
   id="Layer_1"
   version="1.1"><metadata
     id="metadata24"><rdf:RDF><cc:Work
         rdf:about=""><dc:format>image/svg+xml</dc:format><dc:type
           rdf:resource="http://purl.org/dc/dcmitype/StillImage" /><dc:title></dc:title></cc:Work></rdf:RDF></metadata><defs
     id="defs22" /><g
     id="g3"><linearGradient
       y2="44.05"
       x2="256"
       y1="467.95"
       x1="256"
       gradientUnits="userSpaceOnUse"
       id="SVGID_1_"><stop
         id="stop6"
         style="stop-color:#ec2c1b;stop-opacity:1"
         offset="0" /><stop
         id="stop8"
         style="stop-color:#eaa623;stop-opacity:1"
         offset="1" /></linearGradient><path
       id="path10"
       d="M466,468H46c-11,0-20-9-20-20V64.1c0-11,9-20,20-20h420c11,0,20,9,20,20V448   C486,459,477,468,466,468z"
       style="fill:url(#SVGID_1_);" /><g
       transform="matrix(0.14909103,0,0,0.14909103,565.15384,193.1857)"
       id="g6230"><path
         d="M-1653.1-159.6c-272.5,0-323.6,388.2-170.3,388.2    C-1670.1,228.6-1380.5-159.6-1653.1-159.6z"
         id="path9" /><path
         d="M-2105.6,180.5c81.6,5,171.2-311.5,17.8-291.6    C-2241.2-91.2-2187.2,175.5-2105.6,180.5z"
         id="path11" /><path
         d="M-2479.7,377.2c58.1-25.6,7.5-275.5-91.2-207.3    C-2669.6,238-2537.7,402.7-2479.7,377.2z"
         id="path13" /><path
         d="M-2316.1,246.3c69.1-14.1,72.9-297.6-50.3-246.7    C-2489.7,50.5-2385.2,260.4-2316.1,246.3C-2316.1,246.3-2316.1,246.3-2316.1,246.3z"
         id="path15" /><path
         d="M-1955.2,880.7c12.3,93.6-68.7,139.9-148,79.5    c-252.4-192.2,417.9-288,373.8-550.6c-36.7-217.9-705.4-150.8-781.5,190.2c-51.5,230.7,212.2,550.6,487.3,550.6    c135.4,0,291.5-122.2,320.7-277.1C-1680.6,755.3-1965.5,802.6-1955.2,880.7C-1955.2,880.7-1955.2,880.7-1955.2,880.7z"
         id="newshape" /></g><path
       id="path18"
       d="M466,44.2H46c-11,0-20,9-20,20v45c0-11,9-20,20-20h420c11,0,20,9,20,20v-45C486,53.2,477,44.2,466,44.2z" /></g></svg>
